HIERARCHY
ROOT hip
{
  OFFSET 0 0 0
  CHANNELS 6 Xposition Yposition Zposition Zrotation Yrotation Xrotation
  JOINT abdomen
  {
    OFFSET 0 20.6881 -0.73152
    CHANNELS 3 Zrotation Xrotation Yrotation
    JOINT chest
    {
      OFFSET 0 11.7043 -0.48768
      CHANNELS 3 Zrotation Xrotation Yrotation
      JOINT neck
      {
        OFFSET 0 22.1894 -2.19456
        CHANNELS 3 Zrotation Xrotation Yrotation
        JOINT head
        {
          OFFSET -0.24384 7.07133 1.2192
          CHANNELS 3 Zrotation Xrotation Yrotation
          JOINT leftEye
          {
            OFFSET 4.14528 8.04674 8.04672
            CHANNELS 3 Zrotation Xrotation Yrotation
            End Site
            {
              OFFSET 1 0 0
            }
          }
          JOINT rightEye
          {
            OFFSET -3.6576 8.04674 8.04672
            CHANNELS 3 Zrotation Xrotation Yrotation
            End Site
            {
              OFFSET 1 0 0
            }
          }
        }
      }
      JOINT rCollar
      {
        OFFSET -2.68224 19.2634 -4.8768
        CHANNELS 3 Zrotation Xrotation Yrotation
        JOINT rShldr
        {
          OFFSET -8.77824 -1.95073 1.46304
          CHANNELS 3 Zrotation Xrotation Yrotation
          JOINT rForeArm
          {
            OFFSET -28.1742 -1.7115 0.48768
            CHANNELS 3 Zrotation Xrotation Yrotation
            JOINT rHand
            {
              OFFSET -22.5879 0.773209 7.07136
              CHANNELS 3 Zrotation Xrotation Yrotation
              JOINT rThumb1
              {
                OFFSET -1.2192 -0.487915 3.41376
                CHANNELS 3 Zrotation Xrotation Yrotation
                JOINT rThumb2
                {
                  OFFSET -3.37035 -0.52449 3.41376
                  CHANNELS 3 Zrotation Xrotation Yrotation
                  End Site
                  {
                    OFFSET -1.78271 -1.18214 1.43049
                  }
                }
              }
              JOINT rIndex1
              {
                OFFSET -7.75947 0.938293 5.60832
                CHANNELS 3 Zrotation Xrotation Yrotation
                JOINT rIndex2
                {
                  OFFSET -2.54057 -0.884171 1.56538
                  CHANNELS 3 Zrotation Xrotation Yrotation
                  End Site
                  {
                    OFFSET -1.62519 -0.234802 1.16502
                  }
                }
              }
              JOINT rMid1
              {
                OFFSET -8.24714 1.18213 3.41376
                CHANNELS 3 Zrotation Xrotation Yrotation
                JOINT rMid2
                {
                  OFFSET -3.10165 -0.590103 1.0647
                  CHANNELS 3 Zrotation Xrotation Yrotation
                  End Site
                  {
                    OFFSET -2.48547 -0.328903 0.83742
                  }
                }
              }
              JOINT rRing1
              {
                OFFSET -8.82822 0.546677 1.51678
                CHANNELS 3 Zrotation Xrotation Yrotation
                JOINT rRing2
                {
                  OFFSET -2.60934 -0.819778 -0.0198488
                  CHANNELS 3 Zrotation Xrotation Yrotation
                  End Site
                  {
                    OFFSET -2.33842 -0.294052 0.168128
                  }
                }
              }
              JOINT rPinky1
              {
                OFFSET -8.27202 -0.0477905 -0.4584
                CHANNELS 3 Zrotation Xrotation Yrotation
                JOINT rPinky2
                {
                  OFFSET -1.82734 -0.647385 -0.700984
                  CHANNELS 3 Zrotation Xrotation Yrotation
                  End Site
                  {
                    OFFSET -1.69225 -0.51767 -0.607171
                  }
                }
              }
            }
          }
        }
      }
      JOINT lCollar
      {
        OFFSET 2.68224 19.2634 -4.8768
        CHANNELS 3 Zrotation Xrotation Yrotation
        JOINT lShldr
        {
          OFFSET 8.77824 -1.95073 1.46304
          CHANNELS 3 Zrotation Xrotation Yrotation
          JOINT lForeArm
          {
            OFFSET 28.1742 -1.7115 0.48768
            CHANNELS 3 Zrotation Xrotation Yrotation
            JOINT lHand
            {
              OFFSET 22.5879 0.773209 7.07136
              CHANNELS 3 Zrotation Xrotation Yrotation
              JOINT lThumb1
              {
                OFFSET 1.2192 -0.487915 3.41376
                CHANNELS 3 Zrotation Xrotation Yrotation
                JOINT lThumb2
                {
                  OFFSET 3.37035 -0.52449 3.41376
                  CHANNELS 3 Zrotation Xrotation Yrotation
                  End Site
                  {
                    OFFSET 1.78271 -1.18214 1.43049
                  }
                }
              }
              JOINT lIndex1
              {
                OFFSET 7.75947 0.938293 5.60832
                CHANNELS 3 Zrotation Xrotation Yrotation
                JOINT lIndex2
                {
                  OFFSET 2.54057 -0.884171 1.56538
                  CHANNELS 3 Zrotation Xrotation Yrotation
                  End Site
                  {
                    OFFSET 1.62519 -0.234802 1.16502
                  }
                }
              }
              JOINT lMid1
              {
                OFFSET 8.24714 1.18213 3.41376
                CHANNELS 3 Zrotation Xrotation Yrotation
                JOINT lMid2
                {
                  OFFSET 3.10165 -0.590103 1.0647
                  CHANNELS 3 Zrotation Xrotation Yrotation
                  End Site
                  {
                    OFFSET 2.48547 -0.328903 0.83742
                  }
                }
              }
              JOINT lRing1
              {
                OFFSET 8.82822 0.546677 1.51678
                CHANNELS 3 Zrotation Xrotation Yrotation
                JOINT lRing2
                {
                  OFFSET 2.60934 -0.819778 -0.0198488
                  CHANNELS 3 Zrotation Xrotation Yrotation
                  End Site
                  {
                    OFFSET 2.33842 -0.294052 0.168128
                  }
                }
              }
              JOINT lPinky1
              {
                OFFSET 8.27202 -0.0477905 -0.4584
                CHANNELS 3 Zrotation Xrotation Yrotation
                JOINT lPinky2
                {
                  OFFSET 1.82734 -0.647385 -0.700984
                  CHANNELS 3 Zrotation Xrotation Yrotation
                  End Site
                  {
                    OFFSET 1.69225 -0.51767 -0.607171
                  }
                }
              }
            }
          }
        }
      }
    }
  }
  JOINT rButtock
  {
    OFFSET -8.77824 4.35084 1.2192
    CHANNELS 3 Zrotation Xrotation Yrotation
    JOINT rThigh
    {
      OFFSET 0 -1.70687 -2.19456
      CHANNELS 3 Zrotation Xrotation Yrotation
      JOINT rShin
      {
        OFFSET 0 -36.8199 0.73152
        CHANNELS 3 Zrotation Xrotation Yrotation
        JOINT rFoot
        {
          OFFSET 0.73152 -45.1104 -5.12064
          CHANNELS 3 Zrotation Xrotation Yrotation
          End Site
          {
            OFFSET -1.1221 -3.69964 12.103
          }
        }
      }
    }
  }
  JOINT lButtock
  {
    OFFSET 8.77824 4.35084 1.2192
    CHANNELS 3 Zrotation Xrotation Yrotation
    JOINT lThigh
    {
      OFFSET 0 -1.70687 -2.19456
      CHANNELS 3 Zrotation Xrotation Yrotation
      JOINT lShin
      {
        OFFSET 0 -36.8199 0.73152
        CHANNELS 3 Zrotation Xrotation Yrotation
        JOINT lFoot
        {
          OFFSET -0.73152 -45.1104 -5.12064
          CHANNELS 3 Zrotation Xrotation Yrotation
          End Site
          {
            OFFSET 1.1221 -3.69964 12.103
          }
        }
      }
    }
  }
}
MOTION
Frames:	4
Frame Time:	0.03333
0.0 0.0 0.0 0.0 0.0 0.0 0.0 0.0 0.0 0.0 0.0 0.0 0.0 0.0 0.0 0.0 0.0 0.0 0.0 0.0 0.0 0.0 0.0 0.0 0.0 0.0 0.0 0.0 0.0 0.0 0.0 0.0 0.0 0.0 0.0 0.0 0.0 0.0 0.0 0.0 0.0 0.0 0.0 0.0 0.0 0.0 0.0 0.0 0.0 0.0 0.0 0.0 0.0 0.0 0.0 0.0 0.0 0.0 0.0 0.0 0.0 0.0 0.0 0.0 0.0 0.0 0.0 0.0 0.0 0.0 0.0 0.0 0.0 0.0 0.0 0.0 0.0 0.0 0.0 0.0 0.0 0.0 0.0 0.0 0.0 0.0 0.0 0.0 0.0 0.0 0.0 0.0 0.0 0.0 0.0 0.0 0.0 0.0 0.0 0.0 0.0 0.0 0.0 0.0 0.0 0.0 0.0 0.0 0.0 0.0 0.0 0.0 0.0 0.0 0.0 0.0 0.0 0.0 0.0 0.0 0.0 0.0 0.0 0.0 0.0 0.0 0.0 0.0 0.0 0.0 0.0 0.0
0.0246 46.1928 -0.0883 -144.773217 61.572416 -139.122614 9.264875 2.474672 88.499679 -5.070159 -4.493481 -83.658535 -10.150568 22.322331 -78.331661 36.617017 11.040479 95.241312 -0.003389 0.0 -0.000953 -0.003198 -0.0 0.003133 -29.827824 58.184462 32.23263 77.202129 -0.103263 16.631498 -5.141173 -8.543729 108.063095 -10.933952 -44.332843 -10.905891 -89.135524 38.426888 50.299594 -37.867208 -4.163784 39.700853 -43.648521 38.804719 34.058378 -4.4201 15.935193 1.490289 173.126926 -66.298136 137.617614 -173.807391 -34.967017 143.495392 -0.021021 -1.725447 -0.540584 -152.540613 25.107859 168.040031 -145.54329 13.245212 -142.148138 -171.813013 71.006317 -142.746222 -3.268995 -26.755827 5.241517 116.221627 0.162698 -118.425854 -16.377172 1.741983 47.584677 -125.82946 -53.756236 -128.850788 171.603259 -9.286353 -89.949618 126.973465 12.602756 -61.433078 0.327313 0.530004 -0.186025 65.768948 48.401297 -50.660754 0.571892 1.648212 -0.322188 17.940714 42.27453 -14.398942 -0.003601 1.772289 -0.557034 -8.999939 13.591334 -1.794263 157.329478 57.24636 150.512283 85.640655 -52.3381 84.283235 179.999952 75.749648 -0.0 98.936441 76.774079 172.155458 30.090746 -6.251176 -87.226236 -156.93383 -0.267967 45.888834 -4.8e-05 -6e-06 -0.0 101.315694 -56.308652 -167.079986 88.191678 -19.34654 -27.096748 -43.893957 46.51524 -39.575549
0.0224 46.1755 -0.1258 -144.801241 61.610884 -139.120989 9.248934 2.298234 92.97568 -5.268463 -4.092486 -88.074298 11.18689 20.613956 91.091776 -31.823335 3.673416 -71.577102 -0.000274 -0.0 0.00026 0.005402 -0.0 -0.000409 -155.460038 -3.227548 161.778283 -88.442788 22.920421 57.138276 2.450632 -35.929876 -142.763628 -152.669174 22.786817 133.730275 83.253425 -50.258604 33.61642 -150.072173 -3.275473 116.020797 -77.667209 43.029985 64.538593 -67.428498 51.979068 46.870728 -161.089944 -7.96324 143.435656 -42.501791 58.271694 36.599637 0.004728 0.917874 0.28772 4.222372 41.435721 7.707733 -25.537655 -38.087599 -24.59827 10.89558 24.648451 5.571668 6.042597 25.599027 -7.235045 23.682596 -14.563226 -54.766654 -152.406823 -2.683906 -175.020926 -173.358397 27.008324 -168.571467 121.364749 30.329956 -71.958212 62.168857 -6.482541 -40.722729 172.89585 -51.894303 -120.180796 -7.18867 14.024542 6.290828 15.422906 32.961292 -11.297629 129.14455 52.078656 -118.4872 81.516698 -71.914476 98.959256 52.712062 -81.875021 78.567636 113.839238 -39.284757 111.847383 -2.113186 -2.902266 2.359215 -0.000913 0.000486 0.000457 -12.316127 13.04342 2.57913 14.248728 36.3195 104.124218 86.371122 46.369721 174.766339 179.987529 75.749156 0.008532 -143.916711 -18.986882 -180.0 -73.653952 -82.932824 157.977054 11.414646 -32.203225 -70.413636
0.0236 46.1526 -0.15380000000000002 -144.860184 61.69191 -139.162605 9.195856 2.324927 93.159291 -5.305608 -4.082681 -88.214625 11.316401 21.662519 96.997985 -32.414459 6.98813 -76.517567 0.003579 0.0 0.002294 0.003579 0.0 0.002294 -142.973581 39.431544 147.389889 174.669639 -12.638235 101.032454 -11.333659 63.129672 121.926898 -11.461247 -40.76665 -10.10352 -178.927549 -16.453637 89.422415 -150.167119 7.702173 80.310826 166.198509 -67.455819 107.481917 -5.39464 32.205287 2.817547 -160.673918 -6.66773 143.245141 -18.937429 42.851352 15.434206 -145.11944 0.185764 -179.186143 11.802704 26.401216 -5.992272 0.100154 0.258097 0.09099 1.625354 -2.331942 -0.71632 -4.239573 -44.742713 8.648054 -176.893912 -46.04295 -101.193861 -166.372284 82.032007 148.125371 122.024461 83.613709 -121.502144 176.597929 -14.213338 -89.690596 135.874647 12.876323 -69.011156 -12.216723 -21.784665 5.120171 21.109382 36.975669 -16.985619 153.320348 13.628976 -138.862658 -2.729141 1.645835 -0.571614 71.926387 72.973392 -89.772241 159.838812 0.083506 -176.231342 152.873381 39.992375 148.058391 26.041565 -40.250171 26.817366 -0.0 -0.000199 -0.001827 -12.799897 10.818485 158.190359 17.742389 -41.182394 53.900296 -167.965447 43.377339 -104.353551 -179.884153 75.750927 -0.089291 -143.925523 -18.95788 -180.0 144.180564 -83.169882 -173.529256 -67.212982 62.569518 151.556699
